<?xml version="1.0" standalone="no"?>
<!DOCTYPE svg PUBLIC "-//W3C//DTD SVG 20010904//EN"
 "http://www.w3.org/TR/2001/REC-SVG-20010904/DTD/svg10.dtd">
<svg version="1.0" xmlns="http://www.w3.org/2000/svg"
 width="829.000000pt" height="829.000000pt" viewBox="0 0 829.000000 829.000000"
 preserveAspectRatio="xMidYMid meet">
<metadata>
Created by potrace 1.14, written by Peter Selinger 2001-2017
</metadata>
<g transform="translate(0.000000,829.000000) scale(0.100000,-0.100000)"
fill="#000000" stroke="none">
<path d="M146 8162 c-41 -17 -74 -49 -97 -94 -19 -36 -19 -125 -19 -3926 l0
-3888 30 -47 c18 -28 45 -54 69 -67 l40 -20 3999 2 3999 3 37 29 c21 16 47 47
57 70 18 40 18 160 16 3938 l-2 3896 -31 39 c-17 21 -46 47 -65 58 -34 20 -56
20 -4018 20 -3254 0 -3989 -2 -4015 -13z"/>
</g>
</svg>
